<mxfile host="app.diagrams.net" agent="Mozilla/5.0 (Windows NT 10.0; Win64; x64) AppleWebKit/537.36 (KHTML, like Gecko) Chrome/132.0.0.0 Safari/537.36" version="25.0.3">
  <diagram name="Page-1" id="2YBvvXClWsGukQMizWep">
    <mxGraphModel dx="1222" dy="640" grid="1" gridSize="10" guides="1" tooltips="1" connect="1" arrows="1" fold="1" page="1" pageScale="1" pageWidth="413" pageHeight="583" math="0" shadow="0">
      <root>
        <mxCell id="0" />
        <mxCell id="1" parent="0" />
        <mxCell id="aM9ryv3xv72pqoxQDRHE-5" value="API" style="shape=umlLifeline;perimeter=lifelinePerimeter;whiteSpace=wrap;html=1;container=0;dropTarget=0;collapsible=0;recursiveResize=0;outlineConnect=0;portConstraint=eastwest;newEdgeStyle={&quot;edgeStyle&quot;:&quot;elbowEdgeStyle&quot;,&quot;elbow&quot;:&quot;vertical&quot;,&quot;curved&quot;:0,&quot;rounded&quot;:0};" parent="1" vertex="1">
          <mxGeometry x="40" y="40" width="100" height="490" as="geometry" />
        </mxCell>
        <mxCell id="aM9ryv3xv72pqoxQDRHE-6" value="" style="html=1;points=[];perimeter=orthogonalPerimeter;outlineConnect=0;targetShapes=umlLifeline;portConstraint=eastwest;newEdgeStyle={&quot;edgeStyle&quot;:&quot;elbowEdgeStyle&quot;,&quot;elbow&quot;:&quot;vertical&quot;,&quot;curved&quot;:0,&quot;rounded&quot;:0};" parent="aM9ryv3xv72pqoxQDRHE-5" vertex="1">
          <mxGeometry x="45" y="80" width="10" height="150" as="geometry" />
        </mxCell>
        <mxCell id="_WcbdOjfXRqMUB_A-Mn0-3" value="" style="endArrow=open;endFill=1;endSize=12;html=1;rounded=0;" edge="1" parent="aM9ryv3xv72pqoxQDRHE-5" source="aM9ryv3xv72pqoxQDRHE-6" target="aM9ryv3xv72pqoxQDRHE-6">
          <mxGeometry width="160" relative="1" as="geometry">
            <mxPoint x="40" y="110" as="sourcePoint" />
            <mxPoint y="160" as="targetPoint" />
            <Array as="points">
              <mxPoint y="110" />
              <mxPoint y="140" />
            </Array>
          </mxGeometry>
        </mxCell>
        <mxCell id="_WcbdOjfXRqMUB_A-Mn0-6" value="push on tokens [ ]" style="edgeLabel;html=1;align=center;verticalAlign=middle;resizable=0;points=[];" vertex="1" connectable="0" parent="_WcbdOjfXRqMUB_A-Mn0-3">
          <mxGeometry x="-0.4341" y="-1" relative="1" as="geometry">
            <mxPoint x="19" y="11" as="offset" />
          </mxGeometry>
        </mxCell>
        <mxCell id="_WcbdOjfXRqMUB_A-Mn0-22" value="" style="html=1;points=[];perimeter=orthogonalPerimeter;outlineConnect=0;targetShapes=umlLifeline;portConstraint=eastwest;newEdgeStyle={&quot;edgeStyle&quot;:&quot;elbowEdgeStyle&quot;,&quot;elbow&quot;:&quot;vertical&quot;,&quot;curved&quot;:0,&quot;rounded&quot;:0};" vertex="1" parent="aM9ryv3xv72pqoxQDRHE-5">
          <mxGeometry x="45" y="260" width="10" height="210" as="geometry" />
        </mxCell>
        <mxCell id="_WcbdOjfXRqMUB_A-Mn0-38" value="" style="endArrow=open;endFill=1;endSize=12;html=1;rounded=0;" edge="1" parent="aM9ryv3xv72pqoxQDRHE-5" source="_WcbdOjfXRqMUB_A-Mn0-22" target="_WcbdOjfXRqMUB_A-Mn0-22">
          <mxGeometry width="160" relative="1" as="geometry">
            <mxPoint x="35" y="390" as="sourcePoint" />
            <mxPoint x="35" y="430" as="targetPoint" />
            <Array as="points">
              <mxPoint x="-10" y="390" />
              <mxPoint x="-10" y="400" />
              <mxPoint x="-10" y="430" />
            </Array>
          </mxGeometry>
        </mxCell>
        <mxCell id="_WcbdOjfXRqMUB_A-Mn0-39" value="pop Token" style="edgeLabel;html=1;align=center;verticalAlign=middle;resizable=0;points=[];" vertex="1" connectable="0" parent="_WcbdOjfXRqMUB_A-Mn0-38">
          <mxGeometry x="-0.4341" y="-1" relative="1" as="geometry">
            <mxPoint x="-8" y="-11" as="offset" />
          </mxGeometry>
        </mxCell>
        <mxCell id="_WcbdOjfXRqMUB_A-Mn0-1" value="FCM" style="shape=umlLifeline;perimeter=lifelinePerimeter;whiteSpace=wrap;html=1;container=0;dropTarget=0;collapsible=0;recursiveResize=0;outlineConnect=0;portConstraint=eastwest;newEdgeStyle={&quot;edgeStyle&quot;:&quot;elbowEdgeStyle&quot;,&quot;elbow&quot;:&quot;vertical&quot;,&quot;curved&quot;:0,&quot;rounded&quot;:0};" vertex="1" parent="1">
          <mxGeometry x="210" y="40" width="100" height="530" as="geometry" />
        </mxCell>
        <mxCell id="_WcbdOjfXRqMUB_A-Mn0-2" value="" style="html=1;points=[];perimeter=orthogonalPerimeter;outlineConnect=0;targetShapes=umlLifeline;portConstraint=eastwest;newEdgeStyle={&quot;edgeStyle&quot;:&quot;elbowEdgeStyle&quot;,&quot;elbow&quot;:&quot;vertical&quot;,&quot;curved&quot;:0,&quot;rounded&quot;:0};" vertex="1" parent="_WcbdOjfXRqMUB_A-Mn0-1">
          <mxGeometry x="45" y="80" width="10" height="150" as="geometry" />
        </mxCell>
        <mxCell id="_WcbdOjfXRqMUB_A-Mn0-25" value="" style="html=1;points=[];perimeter=orthogonalPerimeter;outlineConnect=0;targetShapes=umlLifeline;portConstraint=eastwest;newEdgeStyle={&quot;edgeStyle&quot;:&quot;elbowEdgeStyle&quot;,&quot;elbow&quot;:&quot;vertical&quot;,&quot;curved&quot;:0,&quot;rounded&quot;:0};" vertex="1" parent="_WcbdOjfXRqMUB_A-Mn0-1">
          <mxGeometry x="45" y="260" width="10" height="250" as="geometry" />
        </mxCell>
        <mxCell id="_WcbdOjfXRqMUB_A-Mn0-12" value="message dev 1" style="html=1;verticalAlign=bottom;endArrow=block;edgeStyle=elbowEdgeStyle;elbow=horizontal;curved=0;rounded=0;" edge="1" parent="1" source="_WcbdOjfXRqMUB_A-Mn0-2" target="_WcbdOjfXRqMUB_A-Mn0-14">
          <mxGeometry relative="1" as="geometry">
            <mxPoint x="290" y="210" as="sourcePoint" />
            <Array as="points">
              <mxPoint x="320" y="210" />
            </Array>
            <mxPoint x="380" y="210" as="targetPoint" />
          </mxGeometry>
        </mxCell>
        <mxCell id="_WcbdOjfXRqMUB_A-Mn0-7" value="" style="endArrow=open;endFill=1;endSize=12;html=1;rounded=0;" edge="1" parent="1" source="aM9ryv3xv72pqoxQDRHE-6" target="_WcbdOjfXRqMUB_A-Mn0-2">
          <mxGeometry width="160" relative="1" as="geometry">
            <mxPoint x="100" y="200" as="sourcePoint" />
            <mxPoint x="240" y="210" as="targetPoint" />
            <Array as="points">
              <mxPoint x="165" y="200" />
              <mxPoint x="165" y="210" />
            </Array>
          </mxGeometry>
        </mxCell>
        <mxCell id="_WcbdOjfXRqMUB_A-Mn0-8" value="send (...) to token 1" style="edgeLabel;html=1;align=center;verticalAlign=middle;resizable=0;points=[];" vertex="1" connectable="0" parent="_WcbdOjfXRqMUB_A-Mn0-7">
          <mxGeometry x="-0.4341" y="-1" relative="1" as="geometry">
            <mxPoint x="3" y="-11" as="offset" />
          </mxGeometry>
        </mxCell>
        <mxCell id="_WcbdOjfXRqMUB_A-Mn0-10" value="" style="endArrow=open;endFill=1;endSize=12;html=1;rounded=0;" edge="1" parent="1" source="aM9ryv3xv72pqoxQDRHE-6" target="_WcbdOjfXRqMUB_A-Mn0-2">
          <mxGeometry width="160" relative="1" as="geometry">
            <mxPoint x="100" y="240" as="sourcePoint" />
            <mxPoint x="240" y="240" as="targetPoint" />
            <Array as="points">
              <mxPoint x="165" y="240" />
              <mxPoint x="190" y="240" />
            </Array>
          </mxGeometry>
        </mxCell>
        <mxCell id="_WcbdOjfXRqMUB_A-Mn0-11" value="send(...) to token 2" style="edgeLabel;html=1;align=center;verticalAlign=middle;resizable=0;points=[];" vertex="1" connectable="0" parent="_WcbdOjfXRqMUB_A-Mn0-10">
          <mxGeometry x="-0.4341" y="-1" relative="1" as="geometry">
            <mxPoint x="12" y="-11" as="offset" />
          </mxGeometry>
        </mxCell>
        <mxCell id="_WcbdOjfXRqMUB_A-Mn0-13" value="Web" style="shape=umlLifeline;perimeter=lifelinePerimeter;whiteSpace=wrap;html=1;container=0;dropTarget=0;collapsible=0;recursiveResize=0;outlineConnect=0;portConstraint=eastwest;newEdgeStyle={&quot;edgeStyle&quot;:&quot;elbowEdgeStyle&quot;,&quot;elbow&quot;:&quot;vertical&quot;,&quot;curved&quot;:0,&quot;rounded&quot;:0};" vertex="1" parent="1">
          <mxGeometry x="340" y="40" width="100" height="530" as="geometry" />
        </mxCell>
        <mxCell id="_WcbdOjfXRqMUB_A-Mn0-14" value="" style="html=1;points=[];perimeter=orthogonalPerimeter;outlineConnect=0;targetShapes=umlLifeline;portConstraint=eastwest;newEdgeStyle={&quot;edgeStyle&quot;:&quot;elbowEdgeStyle&quot;,&quot;elbow&quot;:&quot;vertical&quot;,&quot;curved&quot;:0,&quot;rounded&quot;:0};" vertex="1" parent="_WcbdOjfXRqMUB_A-Mn0-13">
          <mxGeometry x="45" y="80" width="10" height="150" as="geometry" />
        </mxCell>
        <mxCell id="_WcbdOjfXRqMUB_A-Mn0-23" value="" style="html=1;points=[];perimeter=orthogonalPerimeter;outlineConnect=0;targetShapes=umlLifeline;portConstraint=eastwest;newEdgeStyle={&quot;edgeStyle&quot;:&quot;elbowEdgeStyle&quot;,&quot;elbow&quot;:&quot;vertical&quot;,&quot;curved&quot;:0,&quot;rounded&quot;:0};" vertex="1" parent="_WcbdOjfXRqMUB_A-Mn0-13">
          <mxGeometry x="45" y="260" width="10" height="250" as="geometry" />
        </mxCell>
        <mxCell id="_WcbdOjfXRqMUB_A-Mn0-31" value="token up to end" style="html=1;verticalAlign=bottom;endArrow=open;dashed=1;endSize=8;curved=0;rounded=0;" edge="1" parent="_WcbdOjfXRqMUB_A-Mn0-13" source="_WcbdOjfXRqMUB_A-Mn0-23" target="_WcbdOjfXRqMUB_A-Mn0-23">
          <mxGeometry x="-0.25" relative="1" as="geometry">
            <mxPoint x="65" y="280" as="sourcePoint" />
            <mxPoint x="60" y="310" as="targetPoint" />
            <Array as="points">
              <mxPoint x="100" y="280" />
              <mxPoint x="100" y="310" />
            </Array>
            <mxPoint as="offset" />
          </mxGeometry>
        </mxCell>
        <mxCell id="_WcbdOjfXRqMUB_A-Mn0-34" value="" style="endArrow=open;endFill=1;endSize=12;html=1;rounded=0;" edge="1" parent="_WcbdOjfXRqMUB_A-Mn0-13">
          <mxGeometry width="160" relative="1" as="geometry">
            <mxPoint x="55" y="440" as="sourcePoint" />
            <mxPoint x="55" y="460" as="targetPoint" />
            <Array as="points">
              <mxPoint x="110" y="440" />
              <mxPoint x="110" y="450" />
              <mxPoint x="110" y="460" />
            </Array>
          </mxGeometry>
        </mxCell>
        <mxCell id="_WcbdOjfXRqMUB_A-Mn0-35" value="unknow action" style="edgeLabel;html=1;align=center;verticalAlign=middle;resizable=0;points=[];" vertex="1" connectable="0" parent="_WcbdOjfXRqMUB_A-Mn0-34">
          <mxGeometry x="-0.4341" y="-1" relative="1" as="geometry">
            <mxPoint x="18" y="-1" as="offset" />
          </mxGeometry>
        </mxCell>
        <mxCell id="_WcbdOjfXRqMUB_A-Mn0-16" value="&amp;nbsp;message dev 2&amp;nbsp;" style="html=1;verticalAlign=bottom;endArrow=block;edgeStyle=elbowEdgeStyle;elbow=vertical;curved=0;rounded=0;" edge="1" parent="1" source="_WcbdOjfXRqMUB_A-Mn0-2" target="_WcbdOjfXRqMUB_A-Mn0-20">
          <mxGeometry x="0.0417" y="-10" relative="1" as="geometry">
            <mxPoint x="280" y="240" as="sourcePoint" />
            <Array as="points">
              <mxPoint x="335" y="240" />
            </Array>
            <mxPoint x="370" y="240" as="targetPoint" />
            <mxPoint as="offset" />
          </mxGeometry>
        </mxCell>
        <mxCell id="_WcbdOjfXRqMUB_A-Mn0-19" value="Phone" style="shape=umlLifeline;perimeter=lifelinePerimeter;whiteSpace=wrap;html=1;container=0;dropTarget=0;collapsible=0;recursiveResize=0;outlineConnect=0;portConstraint=eastwest;newEdgeStyle={&quot;edgeStyle&quot;:&quot;elbowEdgeStyle&quot;,&quot;elbow&quot;:&quot;vertical&quot;,&quot;curved&quot;:0,&quot;rounded&quot;:0};" vertex="1" parent="1">
          <mxGeometry x="460" y="40" width="100" height="490" as="geometry" />
        </mxCell>
        <mxCell id="_WcbdOjfXRqMUB_A-Mn0-20" value="" style="html=1;points=[];perimeter=orthogonalPerimeter;outlineConnect=0;targetShapes=umlLifeline;portConstraint=eastwest;newEdgeStyle={&quot;edgeStyle&quot;:&quot;elbowEdgeStyle&quot;,&quot;elbow&quot;:&quot;vertical&quot;,&quot;curved&quot;:0,&quot;rounded&quot;:0};" vertex="1" parent="_WcbdOjfXRqMUB_A-Mn0-19">
          <mxGeometry x="45" y="80" width="10" height="150" as="geometry" />
        </mxCell>
        <mxCell id="_WcbdOjfXRqMUB_A-Mn0-26" value="Register and send to devices &lt;font style=&quot;font-size: 16px;&quot;&gt;*&lt;/font&gt;" style="text;html=1;align=center;verticalAlign=middle;whiteSpace=wrap;rounded=0;" vertex="1" parent="1">
          <mxGeometry x="550" y="130" width="70" height="40" as="geometry" />
        </mxCell>
        <mxCell id="_WcbdOjfXRqMUB_A-Mn0-27" value="Update token after some time" style="text;html=1;align=center;verticalAlign=middle;whiteSpace=wrap;rounded=0;" vertex="1" parent="1">
          <mxGeometry x="530" y="300" width="90" height="40" as="geometry" />
        </mxCell>
        <mxCell id="_WcbdOjfXRqMUB_A-Mn0-28" value="&amp;nbsp;removeToken( )&amp;nbsp;" style="html=1;verticalAlign=bottom;endArrow=block;curved=0;rounded=0;" edge="1" parent="1" source="_WcbdOjfXRqMUB_A-Mn0-23" target="_WcbdOjfXRqMUB_A-Mn0-22">
          <mxGeometry y="10" width="80" relative="1" as="geometry">
            <mxPoint x="350" y="360" as="sourcePoint" />
            <mxPoint x="300" y="360" as="targetPoint" />
            <Array as="points">
              <mxPoint x="330" y="360" />
            </Array>
            <mxPoint as="offset" />
          </mxGeometry>
        </mxCell>
        <mxCell id="_WcbdOjfXRqMUB_A-Mn0-32" value="deleteToken( )" style="html=1;verticalAlign=bottom;endArrow=open;endSize=8;curved=0;rounded=0;" edge="1" parent="1" source="_WcbdOjfXRqMUB_A-Mn0-22" target="_WcbdOjfXRqMUB_A-Mn0-25">
          <mxGeometry x="-0.1724" relative="1" as="geometry">
            <mxPoint x="110" y="400" as="sourcePoint" />
            <mxPoint x="240" y="400" as="targetPoint" />
            <mxPoint as="offset" />
          </mxGeometry>
        </mxCell>
        <mxCell id="_WcbdOjfXRqMUB_A-Mn0-40" value="ack token" style="html=1;verticalAlign=bottom;endArrow=open;dashed=1;endSize=8;curved=0;rounded=0;" edge="1" parent="1" source="_WcbdOjfXRqMUB_A-Mn0-25" target="_WcbdOjfXRqMUB_A-Mn0-22">
          <mxGeometry relative="1" as="geometry">
            <mxPoint x="250" y="430" as="sourcePoint" />
            <mxPoint x="110" y="430" as="targetPoint" />
            <Array as="points">
              <mxPoint x="180" y="430" />
            </Array>
          </mxGeometry>
        </mxCell>
        <mxCell id="_WcbdOjfXRqMUB_A-Mn0-41" value="Error" style="html=1;verticalAlign=bottom;endArrow=open;dashed=1;endSize=8;curved=0;rounded=0;" edge="1" parent="1" source="_WcbdOjfXRqMUB_A-Mn0-25" target="_WcbdOjfXRqMUB_A-Mn0-22">
          <mxGeometry relative="1" as="geometry">
            <mxPoint x="220" y="460" as="sourcePoint" />
            <mxPoint x="150" y="460" as="targetPoint" />
            <Array as="points">
              <mxPoint x="180" y="460" />
            </Array>
          </mxGeometry>
        </mxCell>
        <mxCell id="_WcbdOjfXRqMUB_A-Mn0-42" value="&amp;nbsp;ack(error: boolean)&amp;nbsp;" style="html=1;verticalAlign=bottom;endArrow=open;endSize=8;curved=0;rounded=0;dashed=1;" edge="1" parent="1" source="_WcbdOjfXRqMUB_A-Mn0-22" target="_WcbdOjfXRqMUB_A-Mn0-23">
          <mxGeometry x="0.1379" y="-10" relative="1" as="geometry">
            <mxPoint x="100" y="480" as="sourcePoint" />
            <mxPoint x="240" y="480" as="targetPoint" />
            <mxPoint as="offset" />
            <Array as="points">
              <mxPoint x="190" y="480" />
            </Array>
          </mxGeometry>
        </mxCell>
        <mxCell id="_WcbdOjfXRqMUB_A-Mn0-44" value="getToken( )" style="html=1;verticalAlign=bottom;endArrow=block;curved=0;rounded=0;" edge="1" parent="1" source="_WcbdOjfXRqMUB_A-Mn0-23" target="_WcbdOjfXRqMUB_A-Mn0-25">
          <mxGeometry width="80" relative="1" as="geometry">
            <mxPoint x="370" y="520" as="sourcePoint" />
            <mxPoint x="300" y="520" as="targetPoint" />
            <Array as="points">
              <mxPoint x="330" y="520" />
            </Array>
          </mxGeometry>
        </mxCell>
        <mxCell id="_WcbdOjfXRqMUB_A-Mn0-45" value="response" style="html=1;verticalAlign=bottom;endArrow=open;dashed=1;endSize=8;curved=0;rounded=0;" edge="1" parent="1" source="_WcbdOjfXRqMUB_A-Mn0-25" target="_WcbdOjfXRqMUB_A-Mn0-23">
          <mxGeometry relative="1" as="geometry">
            <mxPoint x="270" y="550" as="sourcePoint" />
            <mxPoint x="350" y="550" as="targetPoint" />
            <Array as="points">
              <mxPoint x="325" y="550" />
            </Array>
          </mxGeometry>
        </mxCell>
        <mxCell id="_WcbdOjfXRqMUB_A-Mn0-50" value="Repeat &lt;font style=&quot;font-size: 16px;&quot;&gt;*&lt;/font&gt;" style="text;html=1;align=center;verticalAlign=middle;whiteSpace=wrap;rounded=0;" vertex="1" parent="1">
          <mxGeometry x="410" y="530" width="60" height="30" as="geometry" />
        </mxCell>
        <mxCell id="_WcbdOjfXRqMUB_A-Mn0-51" value="" style="endArrow=open;endFill=1;endSize=12;html=1;rounded=0;" edge="1" parent="1" source="_WcbdOjfXRqMUB_A-Mn0-14" target="aM9ryv3xv72pqoxQDRHE-6">
          <mxGeometry width="160" relative="1" as="geometry">
            <mxPoint x="385" y="130" as="sourcePoint" />
            <mxPoint x="280" y="130" as="targetPoint" />
            <Array as="points">
              <mxPoint x="320" y="130" />
            </Array>
          </mxGeometry>
        </mxCell>
        <mxCell id="_WcbdOjfXRqMUB_A-Mn0-52" value="send new token to API&amp;nbsp;" style="edgeLabel;html=1;align=center;verticalAlign=middle;resizable=0;points=[];" vertex="1" connectable="0" parent="_WcbdOjfXRqMUB_A-Mn0-51">
          <mxGeometry x="-0.4341" y="-1" relative="1" as="geometry">
            <mxPoint x="-11" y="-9" as="offset" />
          </mxGeometry>
        </mxCell>
      </root>
    </mxGraphModel>
  </diagram>
</mxfile>
